<svg id="Layer_1" data-name="Layer 1" xmlns="http://www.w3.org/2000/svg" viewBox="0 0 455.56 354.69"><defs><style>.cls-1{fill:#edded3;}.cls-2{fill:#d2b6a1;}.cls-3{fill:#231f20;}</style></defs><path class="cls-1" d="M303.16,3.81c42.5-8,88,3.35,88,3.35-3.79,11.39-37.81,111.45-38.8,116.73s-13.87,69-15.52,87.51-3.3,56.8-.66,81.9,5.11,54,.41,57.14-6.6,4.44-13.71,3.81-16.38-4.32-18.54-11.3-4.06-40.89-4.06-40.89-1-31-6.2-40S282.75,239,263.8,234.2s-33.71-6.09-49.45,1.21S188,251,179.18,262.6,156.74,296.4,153.36,305s-7.7,23.87-9.77,27.06-5.56,9.74-11.75,11.29-15.34-.64-16.63-8.9-4.88-4.53-4.88-4.53-5.82,2.56-11.3.58-11.3-4.66-12.69-10.95-2-9.55-5.13-9.9-10.95-7.11-10.83-11.42,3.26-25.69,11.27-38.74,27.76-38.82,39.21-49.76,30-24.64,35.47-27,21.85-11.53,27.77-13.55,26.12-9.26,34.09-11,31.2-5.19,32.67-6.11,9.21-7.13,12-12.08,19.27-35.11,28.86-81.41S303.16,3.81,303.16,3.81Z"/><path class="cls-2" d="M119.33,339.9c22-1.15,28.94-52.53,47.31-72.52,38.55-42,70.37-36.85,70.37-36.85s-23.06-2.14-46.73,20.29c-9.29,8.81-25.56,28.66-28,35.24s-13.36,30.21-15.49,36.11-5.81,16.56-12,19.37-9.1,3.39-12,1.45S119.33,339.9,119.33,339.9Z"/><path class="cls-2" d="M391.2,7.16C385.42,5.9,375,3.71,372.52,3.62c-2.46,6.64-32.08,123.12-36.55,138.17s-14.23,100.05-11.39,124.45,15,90.68-13.93,83.35c7.54,5.24,17.56,6.35,21.39,4.13s7.59-6.13,7.66-12.6-3.63-42.42-3.63-42.42l-2.67-38.62s1.44-41.29,2.67-46.42,8-50.53,8-50.53,10.07-47.25,11.91-51.56S373.87,59,373.87,59L391.2,7.16"/><path class="cls-2" d="M87.67,323.25c10.54,3.9,23-15.23,25-23.43,0,18-.59,20.61.21,25.24s-5.3,6-7.88,6.26S91.16,331,87.67,323.25Z"/><path class="cls-2" d="M71.85,303.4C79.23,301.66,85,288.65,85,288.65a129.67,129.67,0,0,0-1.05,22C80.12,310,72,306.2,71.85,303.4Z"/><path class="cls-3" d="M84.49,309.5a14,14,0,0,1-10.61-7c-2.56-4.71-2.37-10.54-1.51-15.67,1.33-7.95,4.53-15.54,8.2-22.68a183,183,0,0,1,18.6-28.47A235.07,235.07,0,0,1,125.5,206.6,184,184,0,0,1,152.79,186,218.27,218.27,0,0,1,206.5,162.4a243.15,243.15,0,0,1,37.85-7.93,28.44,28.44,0,0,0,5.43-.94A19,19,0,0,0,255,150.8a39.24,39.24,0,0,0,9.18-10.13c7-10.45,11.67-22.55,15.75-34.4,4.86-14.11,8.78-28.53,12.27-43,3.1-12.86,5.84-25.81,8.3-38.8,1.34-7,2.6-14.07,3.73-21.14l.15-1c.21-1.4-2.74-1-2.93.25-.77,5-1.66,10.05-2.57,15.05q-3.28,18.15-7.33,36.13c-3.32,14.63-7,29.19-11.51,43.51-4,12.83-8.59,25.76-15.19,37.52a55.12,55.12,0,0,1-8.8,12.25,23.68,23.68,0,0,1-4.32,3.45,12.09,12.09,0,0,1-4.38,1.63,288,288,0,0,0-35.08,6.65,229.43,229.43,0,0,0-53,21.08,193.23,193.23,0,0,0-27.68,18.6A206.62,206.62,0,0,0,104.87,225a230.12,230.12,0,0,0-22,29.87,112.18,112.18,0,0,0-11.64,24.79c-2.93,9.48-4.91,23.74,5.41,29.62a19.58,19.58,0,0,0,6.81,2.24c1.37.21,3-1.72,1-2Z"/><path class="cls-3" d="M112.18,328.45c-4.68,1.7-9.94,2.68-14.76,1a16.16,16.16,0,0,1-8.9-8.52,35.43,35.43,0,0,1-3-14.93,71.6,71.6,0,0,1,2.65-19.08,99.23,99.23,0,0,1,7.94-20.19,129,129,0,0,1,14-20.47c9.4-11.74,19.32-23.33,31.25-32.59,10.56-8.2,22.56-14.09,34.84-19.27q2.74-1.16,5.52-2.28c.38-.15,1.12-.5.82-1s-1.58-.06-1.89.07c-13.24,5.37-26.41,11.24-38.07,19.59-12.16,8.7-22.29,19.85-31.74,31.36-5.54,6.76-11,13.55-15.45,21.13a100.47,100.47,0,0,0-9.18,20.92,77.68,77.68,0,0,0-3.54,19.94A39.57,39.57,0,0,0,85,320.25,18,18,0,0,0,93.52,330c4.66,2.29,10.15,2,15.07.8a42.67,42.67,0,0,0,4.67-1.44c.38-.14,1.12-.5.81-1s-1.56-.05-1.89.07Z"/><path class="cls-3" d="M191.85,213.07c-17.23,8.85-34.63,18.15-49.09,31.22a96.66,96.66,0,0,0-18.21,21.85,90.23,90.23,0,0,0-11,28.84c-2.09,10.45-3.1,21.75-1.36,32.33.92,5.55,2.85,12,7.75,15.32,8,5.45,18.62-.93,23.37-7.72,2.45-3.52,3.47-7.47,4.76-11.48,1.43-4.49,3-8.92,4.81-13.29a194.82,194.82,0,0,1,18.64-35.77c8.51-12.73,19-24.58,32-32.87a67.47,67.47,0,0,1,46.64-10.07c15.16,2.21,29.62,8.82,38.05,22.1,7.12,11.21,9.3,24.8,10.26,37.83.95,12.76.42,25.63,2,38.34,1.06,8.73,3.47,19.21,12.32,23.18a29.35,29.35,0,0,0,16.67,1.79c4.53-.88,8.38-3.24,10.21-7.6,2.18-5.21,2-11.33,1.69-16.84-.45-8.55-1.63-17.05-2.64-25.54-1.28-10.81-2.4-21.64-3-32.51a325.07,325.07,0,0,1,.52-38.86,603.36,603.36,0,0,1,10.64-76.27q2.82-14.2,6.18-28.3c1.81-7.62,3.65-15.24,6.15-22.66q3.55-10.57,7.14-21.15l13.83-41,11.2-33.17,1.75-5.19c.14-.41-2.62-.15-2.85.55l-6.51,19.31L370.23,65.59,358.64,99.93c-3.15,9.34-5.87,18.75-8.18,28.34-4.87,20.32-8.95,40.86-12.1,61.52-3.95,26-6.68,52.4-5.72,78.7.41,11.06,1.44,22.08,2.7,33.07,1,8.73,2.22,17.45,2.88,26.22.59,7.79,2.21,24.51-8.88,26.07a28.87,28.87,0,0,1-9.31-.58,18.65,18.65,0,0,1-6.43-2.35,19.19,19.19,0,0,1-7.52-9.83,56.72,56.72,0,0,1-3.05-15c-.57-6.16-.71-12.36-.89-18.54-.39-13.24-.75-26.76-4.41-39.58S286.64,244,274.86,237.46c-14.3-7.94-32.53-9.72-48.39-6.33-15,3.21-28.45,11.17-39.49,21.73-10.69,10.23-19.28,22.52-26.36,35.46a206.91,206.91,0,0,0-14.17,32.11c-1.25,3.63-2.08,7.54-3.67,11A23,23,0,0,1,133.59,342a9.84,9.84,0,0,1-10.61-.12c-5-3.2-6.88-9.64-7.81-15.12-1.76-10.47-.79-21.64,1.22-32a90.27,90.27,0,0,1,11.12-29.32c10-16.61,25.37-28.87,41.77-38.78,8.06-4.88,16.39-9.26,24.77-13.57.59-.3.24-.42-.15-.53a3.64,3.64,0,0,0-2.05.55Z"/></svg>