<svg xmlns="http://www.w3.org/2000/svg" viewBox="0 0 455.56 354.69"><defs><style>.cls-1{fill:#edded3;}.cls-2{fill:#d2b6a1;}.cls-3{fill:#231f20;}</style></defs><g id="Hovedfarger-2" data-name="Hovedfarger"><path class="cls-1" d="M303.16,3.81c42.5-8,88,3.35,88,3.35-3.79,11.39-37.81,111.45-38.8,116.73s-13.87,69-15.52,87.51-3.3,56.8-.66,81.9,9.59,54.54,4.89,57.71-5.26,4.25-12.37,3.61-19-6.17-21.15-13.15-7.27-39.41-7.27-39.41-1-31-6.2-40S282.75,239,263.8,234.2s-33.71-6.09-49.45,1.21-30.15,15.05-38.92,26.66S149.58,293.47,146.2,302s-13,17.27-15.1,20.46.24,3.66-6.82,7.55c-5.59,3.09-17.06,10-21.93,2.44-4.53-7-3.9-7.8-3.9-7.8s-4,4.18-9.5,2.2-11,.2-12.42-6.09,2.17-14-1-14.38S64.23,301,64.35,296.66s1.24-15.94,9.26-29,35.8-47,47.25-58,30-24.64,35.47-27,21.85-11.53,27.77-13.55,26.12-9.26,34.09-11,31.2-5.19,32.67-6.11,9.21-7.13,12-12.08,19.27-35.11,28.86-81.41S303.16,3.81,303.16,3.81Z"/></g><g id="Skygger_og_highlights" data-name="Skygger og highlights"><path class="cls-2" d="M99.86,327.32c27.37,3.8,43.65-39.65,62-59.65,38.55-42,75.14-37.14,75.14-37.14s-26-1.73-49.67,20.71c-9.29,8.8-26.62,25.39-29,32S139.11,309.65,137,315.56s-8.5,13-14.7,15.8-12.9,4.88-15.8,2.94S99.86,327.32,99.86,327.32Z"/><path class="cls-2" d="M391.2,7.16C385.42,5.9,375,3.71,372.52,3.62c-2.46,6.64-32.08,123.12-36.55,138.17s-14.23,100.05-11.39,124.45,19.56,90.83-9.33,83.5c7.54,5.24,19.7,4.8,23.52,2.57s4-4.92,4.05-11.39-6.75-42.22-6.75-42.22l-2.67-38.62s1.44-41.29,2.67-46.42,8-50.53,8-50.53,10.07-47.25,11.91-51.56S373.87,59,373.87,59L391.2,7.16"/><path class="cls-2" d="M77.18,317.45c10.54,3.9,28.3-13.21,30.25-21.41-6.25,18.08-7.72,20.59-6.92,25.22s-10.36,6-12.94,6.25S77.52,326.61,77.18,317.45Z"/><path class="cls-2" d="M67.22,300.73C74.59,299,82.46,288,82.46,288a52.22,52.22,0,0,1-6.35,18.3C72.27,305.61,67.37,303.53,67.22,300.73Z"/></g><g id="Streker"><path class="cls-3" d="M76.68,306c-4.14-.62-8.16-2.59-9.87-6.62-2-4.61-.85-10,.59-14.62,2.37-7.55,6.31-14.59,10.5-21.25A260.89,260.89,0,0,1,98.12,236c8.36-10.12,17-20.17,26.66-29.1A182.63,182.63,0,0,1,152.1,186a216.89,216.89,0,0,1,53.94-24,243.63,243.63,0,0,1,38-8c3.85-.49,7.47-1.21,10.89-3.61a37.52,37.52,0,0,0,9.1-9.82c7.11-10.41,11.76-22.54,15.86-34.39,4.88-14.13,8.81-28.59,12.31-43.12q4.63-19.26,8.29-38.74c1.34-7,2.61-14.11,3.73-21.2.06-.32.11-.65.16-1,.12-.78-2.75-.27-2.87.48-.77,5-1.65,10-2.56,15q-3.27,18.08-7.31,36c-3.31,14.66-7,29.24-11.51,43.57-4,12.88-8.59,25.84-15.17,37.66a56.84,56.84,0,0,1-8.86,12.44,23.13,23.13,0,0,1-4.57,3.68,9.84,9.84,0,0,1-4,1.47c-4.36.66-9.51,1.25-14.14,2.06q-10.47,1.84-20.77,4.56a230.68,230.68,0,0,0-52.95,20.95,193,193,0,0,0-27.89,18.63c-9.75,7.85-18.35,16.78-26.63,26.14a353.74,353.74,0,0,0-23.48,29.18,147.27,147.27,0,0,0-14.2,23.61c-3.55,7.72-8.81,21.8.84,27.47a17.93,17.93,0,0,0,6.49,2.1c.68.1,3.33-1,1.86-1.26Z"/><path class="cls-3" d="M97.15,324.66c-4.21,1.53-9.32,3-13.68,1.18-3.38-1.4-5.09-4.73-5.7-8.18-.86-4.88,0-10,1.17-14.75a102,102,0,0,1,6.78-18.63,165.55,165.55,0,0,1,11.16-20.1,236.61,236.61,0,0,1,15.34-20.6c9-11.11,18.59-22,30-30.68,10.39-7.9,22.12-13.63,34.1-18.67q2.67-1.12,5.36-2.21c.35-.14,1.13-.44.84-.91s-1.6,0-1.88.11c-12.93,5.25-25.81,11-37.27,19-11.7,8.22-21.52,18.69-30.64,29.62-10.86,13-20.93,26.58-28.45,41.84a113.48,113.48,0,0,0-7.72,19.69c-1.39,5.05-2.47,10.48-1.9,15.74.39,3.62,1.81,7.36,5.11,9.27,4.1,2.37,9.36,1.66,13.72.54,1.58-.41,3.13-.92,4.66-1.48.36-.12,1.12-.44.84-.91s-1.59,0-1.87.12Z"/><path class="cls-3" d="M191.74,213.09c-17.34,8.93-33.83,19.7-48.23,32.9a157.18,157.18,0,0,0-35.43,46.9c-4.17,8.58-8.17,17.89-9.35,27.44-.56,4.52-.6,10.41,3.25,13.61,3.24,2.69,7.93,2.39,11.75,1.39A36.11,36.11,0,0,0,127.3,328c7.69-6.4,13-15.56,18.51-23.8,7.32-11,14.65-22,23-32.31,9-11.08,19.08-21.54,31.14-29.26,12.28-7.87,26.29-12.31,41-11.76,16.88.65,34.61,6.84,44.94,20.83,9.25,12.52,11.5,28.74,12.43,43.87.61,10,1.19,20,3.18,29.87,1.58,7.85,4,16.2,9.53,22.28,4.82,5.34,11.59,7.35,18.6,7.7,4.32.21,9.56-.53,12.22-4.37s2.28-9.25,1.87-13.66c-.69-7.58-2.27-15.08-3.54-22.58a333,333,0,0,1-4.92-66.72c.77-23.41,3.65-46.75,7.56-69.83q4.44-26.13,10.7-51.93c2.05-8.44,4.43-16.73,7.21-24.95l9.48-28.11,12.35-36.6,9-26.67,1.35-4c.28-.83-2.58-.47-2.88.42l-5.1,15.1L373.53,55.07,362,89.27q-3,8.79-5.93,17.57c-4.37,13-7.21,26.54-10.07,39.9-4.36,20.39-8,41-10.48,61.66-2.83,23.34-4.26,46.84-2.69,70.33.7,10.48,1.8,20.92,3.45,31.3,1.27,8,2.9,16,4,24.07.66,4.91,1.59,10.73-.35,15.48-1.73,4.23-5.9,4.69-10,4.33a27.84,27.84,0,0,1-10.31-2.59,22.42,22.42,0,0,1-7.87-7.06c-4.92-6.95-6.91-15.8-8.23-24.07-2.74-17.1-1.5-34.77-6.37-51.53a55.6,55.6,0,0,0-9.85-19.61,48.66,48.66,0,0,0-19.07-14,74.36,74.36,0,0,0-46.91-3.34c-13.58,3.52-25.78,11-36.24,20.19S165.65,272,157.48,283.26c-7.1,9.82-13.54,20.08-20.43,30-5.5,7.94-11.51,15.95-20.73,19.78-3.38,1.41-7.73,2.43-11,.24-4.17-2.77-4.23-8.81-3.7-13.22,1.12-9.44,5-18.64,9.14-27.13a146.59,146.59,0,0,1,15.76-25.61c11.85-15.48,26.58-28.53,42.73-39.36a242.38,242.38,0,0,1,24.27-14.22c.5-.26.74-.63.29-1s-1.62.1-2,.31Z"/></g></svg>