<svg xmlns="http://www.w3.org/2000/svg" viewBox="0 0 455.56 354.69"><defs><style>.cls-1{fill:#edded3;}.cls-2{fill:#d2b6a1;}.cls-3{fill:#231f20;}</style></defs><g id="Hovedfarger-2" data-name="Hovedfarger"><path class="cls-1" d="M303.74,3.81c42.5-8,88,3.35,88,3.35C388,18.55,354,118.61,353,123.89s-13.87,69-15.52,87.51-3.3,56.8-.66,81.9,11.33,55,6.63,58.14-6.63,2.53-13.74,1.9-21.37-14.51-23.53-21.49-5.26-29.79-5.26-29.79-1-31-6.2-40S283.33,239,264.38,234.2s-33.71-6.09-49.45,1.21S184.78,250.46,176,262.07s-29.41,32.76-39.81,42.12c-6.83,6.16-13.86,9-18.71,12.48-3.1,2.22-6.94,2.78-17.68,6.59-6,2.13-18.77,2.92-20.17-3.37-29.1.7-15.52-12.7-18.66-13.05s-8.56-8.51-8.45-12.82,5.06-13.74,16.09-26.39c10.06-11.54,41.37-47,52.82-57.94s30-24.64,35.47-27,21.85-11.53,27.77-13.55,26.12-9.26,34.09-11,31.2-5.19,32.67-6.11,9.21-7.13,12-12.08,19.27-35.11,28.86-81.41S303.74,3.81,303.74,3.81Z"/></g><g id="Skygger_og_highlights" data-name="Skygger og highlights"><path class="cls-2" d="M80.27,315.17c18,10,63.82-27.5,82.18-47.5,38.55-42,75.14-37.14,75.14-37.14s-26-1.73-49.67,20.71c-9.29,8.8-24.45,26.67-29,32-5.51,6.39-20.44,18.5-28.34,25-4.85,4-18.74,10-24.94,12.82S85.85,324.37,83,322.44,80.27,315.17,80.27,315.17Z"/><path class="cls-2" d="M391.78,7.16C386,5.9,375.57,3.71,373.1,3.62c-2.46,6.64-32.08,123.12-36.55,138.17s-14.23,100.05-11.39,124.45S347.92,356.33,319,349c7.54,5.23,18,6.42,21.78,4.19s4.49-5.55,3.93-12.33c-.53-6.45-8.09-42.17-8.09-42.17L334,260.08s1.44-41.29,2.67-46.42,8-50.53,8-50.53,10.07-47.25,11.92-51.56S374.45,59,374.45,59L391.78,7.16"/><path class="cls-2" d="M60.14,308.83c12.55,8.68,33.34-8.56,35.29-16.76C89.18,310.15,80,310.23,80.76,314.86s-6.7,4.85-9.29,5.09S60.49,318,60.14,308.83Z"/><path class="cls-2" d="M52.38,298.21C60,299.63,70.48,289,70.48,289c-7.1,10.47-8.69,17.28-8.69,17.28C58,305.61,52.53,301,52.38,298.21Z"/></g><g id="Streker"><path class="cls-3" d="M61.67,305.47c-3.89-1.52-7.24-4.25-7.65-8.64-.48-5.09,2.33-10.27,4.83-14.5,4.3-7.24,9.68-13.84,15.09-20.27,7.47-8.85,15.29-17.41,23.14-25.93,9-9.78,17.76-20,27.49-29a184,184,0,0,1,27.44-21,217,217,0,0,1,53.83-24A243.94,243.94,0,0,1,244,154.07a29.81,29.81,0,0,0,5.46-.92,19.94,19.94,0,0,0,5.36-2.63,37.56,37.56,0,0,0,9.09-9.76c7.14-10.41,11.8-22.55,15.9-34.41,4.89-14.11,8.81-28.55,12.31-43.06q4.67-19.36,8.34-39c1.33-7,2.6-14.06,3.72-21.12.05-.33.11-.66.16-1,.12-.78-2.75-.27-2.87.48-.77,5-1.65,10-2.55,15q-3.29,18.12-7.32,36.08c-3.31,14.64-7,29.2-11.5,43.52-4,12.86-8.58,25.81-15.15,37.62a57.05,57.05,0,0,1-8.78,12.38,23.24,23.24,0,0,1-4.62,3.77,9.91,9.91,0,0,1-4,1.5c-4.26.64-9.32,1.22-13.86,2q-10.56,1.85-20.94,4.58A231.55,231.55,0,0,0,160,180a193.76,193.76,0,0,0-27.65,18.38c-9.82,7.85-18.34,16.85-26.86,26.06-8.71,9.41-17.45,18.8-26,28.4-6.45,7.28-12.84,14.67-18.54,22.56-3.69,5.11-7.53,10.68-9.22,16.83-1.06,3.87-.94,8,2,11a15.49,15.49,0,0,0,5.59,3.42c.68.26,3.29-.81,2.37-1.17Z"/><path class="cls-3" d="M78.57,318.81c-4.59.24-10.76.53-14.58-2.58-2.83-2.31-2.86-6-2-9.26,1.35-5.1,4.3-9.78,7.22-14.11a209.64,209.64,0,0,1,13.41-17.44c5.38-6.43,10.93-12.71,16.49-19,5.74-6.47,11.47-12.95,17.4-19.25,8.75-9.32,17.92-18.4,28.37-25.84,9.84-7,20.7-12.37,31.82-17.07q2.52-1.06,5.06-2.1c.39-.16,1.17-.63.78-1.13s-1.48-.19-1.91,0c-11.9,4.84-23.68,10.18-34.39,17.33s-20.13,15.93-29,25.19c-12,12.47-23.44,25.52-34.64,38.68-5,5.91-10,11.91-14.46,18.25-3.32,4.7-6.63,9.71-8.51,15.19-1.15,3.36-1.81,7.44.5,10.46,2.73,3.56,8.12,4.16,12.24,4.33,1.7.07,3.39,0,5.08-.05.59,0,1.62-.18,1.92-.79s-.24-.85-.78-.82Z"/><path class="cls-3" d="M192.08,212.72c-18.33,9.43-35.67,20.68-50.76,34.79-5.25,4.91-10.07,10.24-15.23,15.25-4.36,4.23-8.8,8.39-13.16,12.62q-10.09,9.84-19.81,20.05A109.34,109.34,0,0,0,83,307.2a27.59,27.59,0,0,0-4.45,8.4c-3,10.95,12.48,9.51,18.81,8.28,14.72-2.86,27.91-10.44,39.6-19.61a188,188,0,0,0,23.34-22.06c6.29-7,12.19-14.25,18.74-21,12.15-12.45,26.4-23.91,43.48-28.53a65.82,65.82,0,0,1,27.93-1.22c9,1.49,18,4.47,25.46,9.78,12.31,8.73,18.3,22.64,20.84,37.11,1.36,7.74,1.64,15.53,2.3,23.34a110.9,110.9,0,0,0,5.44,27.65c2.51,7.1,6.22,14.24,12.15,19.07,5.15,4.2,11.73,5.94,18.29,6.09,3.82.09,8.52-.73,10.53-4.4s1.12-8.53.46-12.39c-1.17-6.92-3-13.71-4.47-20.56A238,238,0,0,1,337,289.47a355.63,355.63,0,0,1,.19-67.89c2-21,5.25-41.88,9.31-62.57q4.05-20.64,9.23-41c1.82-7.09,4.21-14,6.55-20.92l9.86-29.22,11.59-34.33L392,9.22l1.21-3.57c.28-.83-2.59-.47-2.89.41l-4.55,13.5L375.3,50.44,364.07,83.71l-7.14,21.16c-3.11,9.23-5.42,18.67-7.62,28.15q-6,25.77-10.21,51.91a507,507,0,0,0-6.53,64.83,282.21,282.21,0,0,0,4.76,62.56c1.46,7.4,3.33,14.71,4.86,22.09.93,4.45,2.25,9.66,1.1,14.19-1,3.86-4.05,4.61-7.67,4.45-6.93-.3-13.41-2.6-18.37-7.54-5.68-5.64-9-13.33-11.2-20.9a125.8,125.8,0,0,1-4.46-27.88c-.86-14.29-2.4-29.19-9.72-41.83-8.27-14.28-22.93-21.89-38.81-24.7-17.54-3.09-35.16.58-50.42,9.62-14.8,8.77-26.88,21.4-38,34.33-13.22,15.35-27.52,30.15-45.36,40.15a75.81,75.81,0,0,1-18.19,7.43C96.34,322.93,91,324,86.12,323c-14.84-3.21,6.75-24.51,10.35-28.28,10.47-11,21.41-21.41,32.29-32,5.17-5,10-10.37,15.28-15.28a196.51,196.51,0,0,1,24.09-19.05,258.27,258.27,0,0,1,25.69-15c.5-.25.75-.62.3-1s-1.63.1-2,.31Z"/></g></svg>